<?xml version="1.0" encoding="utf-8"?>
<!-- Generator: Adobe Illustrator 16.0.0, SVG Export Plug-In . SVG Version: 6.00 Build 0)  -->
<!DOCTYPE svg PUBLIC "-//W3C//DTD SVG 1.1//EN" "http://www.w3.org/Graphics/SVG/1.1/DTD/svg11.dtd">
<svg version="1.1" id="Layer_1" xmlns="http://www.w3.org/2000/svg" xmlns:xlink="http://www.w3.org/1999/xlink" x="0px" y="0px"
	 width="253.851px" height="253.885px" viewBox="0 0 253.851 253.885" enable-background="new 0 0 253.851 253.885"
	 xml:space="preserve">
<g>
	<defs>
		<rect id="SVGID_1_" width="253.851" height="253.885"/>
	</defs>
	<clipPath id="SVGID_2_">
		<use xlink:href="#SVGID_1_"  overflow="visible"/>
	</clipPath>
	<path clip-path="url(#SVGID_2_)" fill="#FFFFFF" d="M127.351,89.026c3.452,0,6.25-2.798,6.25-6.25c0-3.452-2.798-6.25-6.25-6.25
		c-27.614,0-50,22.386-50,50c0,27.614,22.386,50,50,50c27.614,0,50-22.386,50-50c0-3.452-2.798-6.25-6.25-6.25
		c-3.451,0-6.25,2.798-6.25,6.25c0,20.709-16.789,37.5-37.5,37.5c-20.709,0-37.5-16.79-37.5-37.5
		C89.851,105.815,106.641,89.026,127.351,89.026"/>
	<path clip-path="url(#SVGID_2_)" fill="none" stroke="#FFFFFF" stroke-width="3" stroke-miterlimit="10" d="M127.351,89.026
		c3.452,0,6.25-2.798,6.25-6.25c0-3.452-2.798-6.25-6.25-6.25c-27.614,0-50,22.386-50,50c0,27.614,22.386,50,50,50
		c27.614,0,50-22.386,50-50c0-3.452-2.798-6.25-6.25-6.25c-3.451,0-6.25,2.798-6.25,6.25c0,20.709-16.789,37.5-37.5,37.5
		c-20.709,0-37.5-16.79-37.5-37.5C89.851,105.815,106.641,89.026,127.351,89.026z"/>
	<path clip-path="url(#SVGID_2_)" fill="#FFFFFF" d="M246.601,89.404c-1.074-3.283-4.607-5.072-7.892-3.997
		c-3.22,1.056-5.014,4.484-4.046,7.732c18.672,59.505-14.429,122.88-73.935,141.552c-59.504,18.672-122.879-14.431-141.552-73.935
		C0.505,101.252,33.606,37.877,93.112,19.205c22.012-6.908,45.613-6.907,67.626,0.002c3.271,1.097,6.813-0.666,7.912-3.939
		c1.097-3.273-0.667-6.816-3.94-7.912c-0.079-0.027-0.158-0.052-0.238-0.075C98.386-13.447,28.008,23.325,7.281,89.412
		c-20.727,66.087,16.044,136.465,82.131,157.191c66.087,20.728,136.464-16.044,157.191-82.132
		C254.268,140.037,254.267,113.84,246.601,89.404"/>
	<path clip-path="url(#SVGID_2_)" fill="none" stroke="#FFFFFF" stroke-width="3" stroke-miterlimit="10" d="M246.601,89.404
		c-1.074-3.283-4.607-5.072-7.892-3.997c-3.22,1.056-5.014,4.484-4.046,7.732c18.672,59.505-14.429,122.88-73.935,141.552
		c-59.504,18.672-122.879-14.431-141.552-73.935C0.505,101.252,33.606,37.877,93.112,19.205c22.012-6.908,45.613-6.907,67.626,0.002
		c3.271,1.097,6.813-0.666,7.912-3.939c1.097-3.273-0.667-6.816-3.94-7.912c-0.079-0.027-0.158-0.052-0.238-0.075
		C98.386-13.447,28.008,23.325,7.281,89.412c-20.727,66.087,16.044,136.465,82.131,157.191
		c66.087,20.728,136.464-16.044,157.191-82.132C254.268,140.037,254.267,113.84,246.601,89.404z"/>
	<path clip-path="url(#SVGID_2_)" fill="#FFFFFF" d="M139.253,46.142c0.03-3.558-2.701-6.531-6.25-6.799
		c-1.867-0.165-3.734-0.317-5.651-0.317c-48.325,0-87.5,39.175-87.5,87.5c0,48.324,39.175,87.5,87.5,87.5s87.5-39.176,87.5-87.5
		c0-2.261-0.139-4.52-0.415-6.763c-0.311-3.464-3.37-6.02-6.833-5.71c-3.464,0.31-6.021,3.369-5.71,6.833
		c0.032,0.36,0.095,0.718,0.188,1.068c0.135,1.514,0.27,3.021,0.27,4.572c0,41.421-33.579,75-75,75c-41.422,0-75-33.578-75-75
		c0-41.422,33.578-75,75-75c1.55,0,3.051,0.14,4.564,0.268l1.173,0.104c3.261,0.142,6.019-2.386,6.16-5.647
		C139.25,46.215,139.252,46.179,139.253,46.142"/>
	<path clip-path="url(#SVGID_2_)" fill="none" stroke="#FFFFFF" stroke-width="3" stroke-miterlimit="10" d="M139.253,46.142
		c0.03-3.558-2.701-6.531-6.25-6.799c-1.867-0.165-3.734-0.317-5.651-0.317c-48.325,0-87.5,39.175-87.5,87.5
		c0,48.324,39.175,87.5,87.5,87.5s87.5-39.176,87.5-87.5c0-2.261-0.139-4.52-0.415-6.763c-0.311-3.464-3.37-6.02-6.833-5.71
		c-3.464,0.31-6.021,3.369-5.71,6.833c0.032,0.36,0.095,0.718,0.188,1.068c0.135,1.514,0.27,3.021,0.27,4.572
		c0,41.421-33.579,75-75,75c-41.422,0-75-33.578-75-75c0-41.422,33.578-75,75-75c1.55,0,3.051,0.14,4.564,0.268l1.173,0.104
		c3.261,0.142,6.019-2.386,6.16-5.647C139.25,46.215,139.252,46.179,139.253,46.142z"/>
	<path clip-path="url(#SVGID_2_)" fill="#FFFFFF" d="M164.851,57.776v22.412l-41.918,41.918c-2.472,2.41-2.521,6.368-0.112,8.838
		c2.41,2.472,6.367,2.521,8.839,0.112c0.037-0.037,0.074-0.074,0.11-0.112l41.92-41.918h22.411c1.657,0,3.247-0.659,4.419-1.831
		l37.5-37.5c2.44-2.441,2.44-6.399-0.001-8.839c-1.172-1.172-2.761-1.83-4.418-1.83h-18.75v-18.75c0-3.453-2.799-6.25-6.251-6.25
		c-1.656,0-3.246,0.659-4.418,1.83l-37.5,37.5C165.509,54.528,164.851,56.118,164.851,57.776 M177.351,60.363l25-25v9.913
		c-0.002,3.449,2.793,6.247,6.242,6.25h0.008h9.912l-25,25h-16.162V60.363z"/>
	<path clip-path="url(#SVGID_2_)" fill="none" stroke="#FFFFFF" stroke-width="3" stroke-miterlimit="10" d="M164.851,57.776v22.412
		l-41.918,41.918c-2.472,2.41-2.521,6.368-0.112,8.838c2.41,2.472,6.367,2.521,8.839,0.112c0.037-0.037,0.074-0.074,0.11-0.112
		l41.92-41.918h22.411c1.657,0,3.247-0.659,4.419-1.831l37.5-37.5c2.44-2.441,2.44-6.399-0.001-8.839
		c-1.172-1.172-2.761-1.83-4.418-1.83h-18.75v-18.75c0-3.453-2.799-6.25-6.251-6.25c-1.656,0-3.246,0.659-4.418,1.83l-37.5,37.5
		C165.509,54.528,164.851,56.118,164.851,57.776z M177.351,60.363l25-25v9.913c-0.002,3.449,2.793,6.247,6.242,6.25h0.008h9.912
		l-25,25h-16.162V60.363z"/>
</g>
</svg>
