<?xml version="1.0" encoding="utf-8"?>
<!-- Generator: Adobe Illustrator 16.0.0, SVG Export Plug-In . SVG Version: 6.00 Build 0)  -->
<!DOCTYPE svg PUBLIC "-//W3C//DTD SVG 1.1//EN" "http://www.w3.org/Graphics/SVG/1.1/DTD/svg11.dtd">
<svg version="1.1" id="Layer_1" xmlns="http://www.w3.org/2000/svg" xmlns:xlink="http://www.w3.org/1999/xlink" x="0px" y="0px"
	 width="204.877px" height="204.874px" viewBox="0 0 204.877 204.874" enable-background="new 0 0 204.877 204.874"
	 xml:space="preserve">
<g>
	<defs>
		<rect id="SVGID_1_" width="204.877" height="204.874"/>
	</defs>
	<clipPath id="SVGID_2_">
		<use xlink:href="#SVGID_1_"  overflow="visible"/>
	</clipPath>
	<path clip-path="url(#SVGID_2_)" fill="#FFFFFF" d="M6.181,108.621h13.83c3.03,40.687,35.558,73.216,76.246,76.249v13.822
		c0,3.415,2.766,6.182,6.181,6.182c3.412,0,6.182-2.767,6.182-6.182V184.87c40.687-3.033,73.217-35.563,76.246-76.249h13.83
		c3.415,0,6.181-2.771,6.181-6.182c0-3.415-2.766-6.181-6.181-6.181h-13.83c-3.029-40.692-35.56-73.217-76.246-76.246V6.182
		c0-3.415-2.771-6.182-6.182-6.182c-3.415,0-6.181,2.767-6.181,6.182v13.83c-40.688,3.026-73.216,35.551-76.246,76.242H6.181
		C2.766,96.254,0,99.02,0,102.436C0,105.851,2.766,108.621,6.181,108.621 M32.374,108.621h28.562
		c2.703,18.21,17.107,32.613,35.321,35.316v28.569C62.383,169.537,35.34,142.494,32.374,108.621 M78.976,96.254H73.45
		c2.43-11.393,11.414-20.377,22.807-22.806v5.525c0,3.416,2.766,6.181,6.181,6.181c3.412,0,6.182-2.765,6.182-6.181v-5.525
		c11.389,2.429,20.377,11.413,22.806,22.806h-5.524c-3.415,0-6.183,2.766-6.183,6.182c0,3.412,2.768,6.181,6.183,6.181h5.524
		c-2.429,11.39-11.417,20.38-22.806,22.806v-5.524c0-3.416-2.771-6.182-6.182-6.182c-3.415,0-6.181,2.766-6.181,6.182v5.524
		c-11.393-2.426-20.377-11.416-22.807-22.806h5.526c3.415,0,6.181-2.77,6.181-6.181C85.157,99.02,82.391,96.254,78.976,96.254
		 M108.62,172.507v-28.569c18.208-2.703,32.614-17.104,35.316-35.316h28.567C169.536,142.494,142.494,169.537,108.62,172.507
		 M172.504,96.254h-28.567c-2.702-18.211-17.105-32.614-35.316-35.317V32.371C142.494,35.341,169.536,62.377,172.504,96.254
		 M96.257,32.371v28.566C78.046,63.64,63.639,78.043,60.936,96.254H32.374C35.34,62.377,62.383,35.338,96.257,32.371"/>
</g>
</svg>
