<?xml version="1.0" encoding="utf-8"?>
<!-- Generator: Adobe Illustrator 16.0.0, SVG Export Plug-In . SVG Version: 6.00 Build 0)  -->
<!DOCTYPE svg PUBLIC "-//W3C//DTD SVG 1.1//EN" "http://www.w3.org/Graphics/SVG/1.1/DTD/svg11.dtd">
<svg version="1.1" id="Layer_1" xmlns="http://www.w3.org/2000/svg" xmlns:xlink="http://www.w3.org/1999/xlink" x="0px" y="0px"
	 width="298.876px" height="274.22px" viewBox="0 0 298.876 274.22" enable-background="new 0 0 298.876 274.22"
	 xml:space="preserve">
<g>
	<defs>
		<rect id="SVGID_1_" width="298.876" height="274.22"/>
	</defs>
	<clipPath id="SVGID_2_">
		<use xlink:href="#SVGID_1_"  overflow="visible"/>
	</clipPath>
	<path clip-path="url(#SVGID_2_)" fill="#FFFFFF" d="M295.192,134.872c-12.759-32.042-82.002-57.308-159.6-58.986
		c31.797-36.03,64.386-56.042,82.965-53.33c17.828,2.624,17.322,26.238,15.445,40.078c-0.458,3.37,1.901,6.476,5.273,6.938
		c3.273,0.44,6.477-1.906,6.935-5.276c4.247-31.232-5.179-50.892-25.871-53.932c-26.162-3.818-65.682,22.978-100.856,65.476
		c-14.44,0.314-28.01,1.474-40.458,3.4c-4.718-27.348-2.834-48.836,5.21-58.94c11.256-14.094,31.6-1.782,42.736,6.8
		c2.684,2.082,6.584,1.588,8.642-1.12c2.084-2.696,1.59-6.564-1.106-8.64c-25.064-19.318-46.89-21.056-59.914-4.718
		c-10.814,13.58-12.954,38.652-7.732,68.79c-29.114,6.07-50.584,16.73-60.056,30.688c-5.778,8.51-6.862,17.958-3.13,27.332
		c3.78,9.484,12.256,18.408,25.196,26.526c2.902,1.806,6.694,0.945,8.498-1.948c1.806-2.884,0.94-6.687-1.95-8.498
		c-10.52-6.596-17.54-13.732-20.284-20.64c-2.214-5.556-1.6-10.736,1.866-15.85c6.628-9.768,24.466-19.56,52.302-25.448
		c2.842,12.446,6.802,25.54,11.858,38.936c-26.444,48.068-36.12,91.676-24.904,114.916c4.502,9.322,12.196,15.034,22.272,16.514
		c1.758,0.258,3.574,0.391,5.442,0.391c11.014,0,23.822-4.5,38.184-13.412c2.89-1.794,3.78-5.599,1.986-8.486
		c-1.794-2.9-5.61-3.748-8.486-1.986c-14.062,8.732-26.22,12.639-35.344,11.303c-5.996-0.885-10.234-4.051-12.954-9.677
		c-7.26-15.04-3.31-49.422,19.794-94.659C92.81,160.548,99.446,173.81,107,186.834c29.542,50.922,64.742,83.798,91.85,85.79
		c0.868,0.065,1.723,0.096,2.566,0.096c9.22,0,17.082-3.786,22.86-11.038c18.804-23.63,11.651-83.452-17.384-145.478
		c-1.456-3.086-5.14-4.41-8.198-2.966c-3.08,1.438-4.418,5.108-2.973,8.19c26.278,56.114,34.405,113.11,18.9,132.576
		c-3.743,4.712-8.668,6.746-14.868,6.332c-18.647-1.374-51.258-26.544-82.088-79.688c-9.28-15.998-16.856-31.936-22.944-47.302
		c0.35-0.61,0.606-1.17,0.962-1.784c9.286-16.008,19.368-30.514,29.69-43.45c0.718-0.004,1.344-0.064,2.066-0.064
		c81.258,0,146.422,26.568,156.292,51.378c5.43,13.647-7.645,23.775-19.563,29.868c-3.034,1.552-4.238,5.264-2.684,8.292
		c1.096,2.13,3.25,3.357,5.487,3.357c0.952,0,1.905-0.218,2.807-0.674C292.736,168.535,301.994,151.993,295.192,134.872
		 M89.212,118.472c-3.186-9.376-5.764-18.424-7.742-27.03c8.546-1.324,17.824-2.288,27.898-2.822
		C102.324,97.988,95.586,108.018,89.212,118.472"/>
	<path clip-path="url(#SVGID_2_)" fill="none" stroke="#FFFFFF" stroke-width="3" stroke-miterlimit="10" d="M295.192,134.872
		c-12.759-32.042-82.002-57.308-159.6-58.986c31.797-36.03,64.386-56.042,82.965-53.33c17.828,2.624,17.322,26.238,15.445,40.078
		c-0.458,3.37,1.901,6.476,5.273,6.938c3.273,0.44,6.477-1.906,6.935-5.276c4.247-31.232-5.179-50.892-25.871-53.932
		c-26.162-3.818-65.682,22.978-100.856,65.476c-14.44,0.314-28.01,1.474-40.458,3.4c-4.718-27.348-2.834-48.836,5.21-58.94
		c11.256-14.094,31.6-1.782,42.736,6.8c2.684,2.082,6.584,1.588,8.642-1.12c2.084-2.696,1.59-6.564-1.106-8.64
		c-25.064-19.318-46.89-21.056-59.914-4.718c-10.814,13.58-12.954,38.652-7.732,68.79c-29.114,6.07-50.584,16.73-60.056,30.688
		c-5.778,8.51-6.862,17.958-3.13,27.332c3.78,9.484,12.256,18.408,25.196,26.526c2.902,1.806,6.694,0.945,8.498-1.948
		c1.806-2.884,0.94-6.687-1.95-8.498c-10.52-6.596-17.54-13.732-20.284-20.64c-2.214-5.556-1.6-10.736,1.866-15.85
		c6.628-9.768,24.466-19.56,52.302-25.448c2.842,12.446,6.802,25.54,11.858,38.936c-26.444,48.068-36.12,91.676-24.904,114.916
		c4.502,9.322,12.196,15.034,22.272,16.514c1.758,0.258,3.574,0.391,5.442,0.391c11.014,0,23.822-4.5,38.184-13.412
		c2.89-1.794,3.78-5.599,1.986-8.486c-1.794-2.9-5.61-3.748-8.486-1.986c-14.062,8.732-26.22,12.639-35.344,11.303
		c-5.996-0.885-10.234-4.051-12.954-9.677c-7.26-15.04-3.31-49.422,19.794-94.659C92.81,160.548,99.446,173.81,107,186.834
		c29.542,50.922,64.742,83.798,91.85,85.79c0.868,0.065,1.723,0.096,2.566,0.096c9.22,0,17.082-3.786,22.86-11.038
		c18.804-23.63,11.651-83.452-17.384-145.478c-1.456-3.086-5.14-4.41-8.198-2.966c-3.08,1.438-4.418,5.108-2.973,8.19
		c26.278,56.114,34.405,113.11,18.9,132.576c-3.743,4.712-8.668,6.746-14.868,6.332c-18.647-1.374-51.258-26.544-82.088-79.688
		c-9.28-15.998-16.856-31.936-22.944-47.302c0.35-0.61,0.606-1.17,0.962-1.784c9.286-16.008,19.368-30.514,29.69-43.45
		c0.718-0.004,1.344-0.064,2.066-0.064c81.258,0,146.422,26.568,156.292,51.378c5.43,13.647-7.645,23.775-19.563,29.868
		c-3.034,1.552-4.238,5.264-2.684,8.292c1.096,2.13,3.25,3.357,5.487,3.357c0.952,0,1.905-0.218,2.807-0.674
		C292.736,168.535,301.994,151.993,295.192,134.872z M89.212,118.472c-3.186-9.376-5.764-18.424-7.742-27.03
		c8.546-1.324,17.824-2.288,27.898-2.822C102.324,97.988,95.586,108.018,89.212,118.472z"/>
	<path clip-path="url(#SVGID_2_)" fill="#FFFFFF" d="M174.087,137.152c0,13.614-11.038,24.652-24.652,24.652
		c-13.615,0-24.652-11.038-24.652-24.652S135.82,112.5,149.435,112.5C163.049,112.5,174.087,123.539,174.087,137.152"/>
	
		<circle clip-path="url(#SVGID_2_)" fill="none" stroke="#FFFFFF" stroke-width="3" stroke-miterlimit="10" cx="149.435" cy="137.152" r="24.652"/>
	<path clip-path="url(#SVGID_2_)" fill="#FFFFFF" d="M124.78,137.152c0,13.594,11.064,24.648,24.654,24.648
		c13.592,0,24.654-11.054,24.654-24.648s-11.062-24.648-24.654-24.648C135.844,112.504,124.78,123.558,124.78,137.152
		 M295.192,134.872c-12.759-32.042-82.002-57.308-159.6-58.986c31.797-36.03,64.386-56.042,82.965-53.33
		c17.828,2.624,17.322,26.238,15.445,40.078c-0.458,3.37,1.901,6.476,5.273,6.938c3.273,0.44,6.477-1.906,6.935-5.276
		c4.247-31.232-5.179-50.892-25.871-53.932c-26.162-3.818-65.682,22.978-100.856,65.476c-14.44,0.314-28.01,1.474-40.458,3.4
		c-4.718-27.348-2.834-48.836,5.21-58.94c11.256-14.094,31.6-1.782,42.736,6.8c2.684,2.082,6.584,1.588,8.642-1.12
		c2.084-2.696,1.59-6.564-1.106-8.64c-25.064-19.318-46.89-21.056-59.914-4.718c-10.814,13.58-12.954,38.652-7.732,68.79
		c-29.114,6.07-50.584,16.73-60.056,30.688c-5.778,8.51-6.862,17.958-3.13,27.332c3.78,9.484,12.256,18.408,25.196,26.526
		c2.902,1.806,6.694,0.945,8.498-1.948c1.806-2.884,0.94-6.687-1.95-8.498c-10.52-6.596-17.54-13.732-20.284-20.64
		c-2.214-5.556-1.6-10.736,1.866-15.85c6.628-9.768,24.466-19.56,52.302-25.448c2.842,12.446,6.802,25.54,11.858,38.936
		c-26.444,48.068-36.12,91.676-24.904,114.916c4.502,9.322,12.196,15.034,22.272,16.514c1.758,0.258,3.574,0.391,5.442,0.391
		c11.014,0,23.822-4.5,38.184-13.412c2.89-1.794,3.78-5.599,1.986-8.486c-1.794-2.9-5.61-3.748-8.486-1.986
		c-14.062,8.732-26.22,12.639-35.344,11.303c-5.996-0.885-10.234-4.051-12.954-9.677c-7.26-15.04-3.31-49.422,19.794-94.659
		C92.81,160.548,99.446,173.81,107,186.834c29.542,50.922,64.742,83.798,91.85,85.79c0.868,0.065,1.723,0.096,2.566,0.096
		c9.22,0,17.082-3.786,22.86-11.038c18.804-23.63,11.651-83.452-17.384-145.478c-1.456-3.086-5.14-4.41-8.198-2.966
		c-3.08,1.438-4.418,5.108-2.973,8.19c26.278,56.114,34.405,113.11,18.9,132.576c-3.743,4.712-8.668,6.746-14.868,6.332
		c-18.647-1.374-51.258-26.544-82.088-79.688c-9.28-15.998-16.856-31.936-22.944-47.302c0.35-0.61,0.606-1.17,0.962-1.784
		c9.286-16.008,19.368-30.514,29.69-43.45c0.718-0.004,1.344-0.064,2.066-0.064c81.258,0,146.422,26.568,156.292,51.378
		c5.43,13.647-7.645,23.775-19.563,29.868c-3.034,1.552-4.238,5.264-2.684,8.292c1.096,2.13,3.25,3.357,5.487,3.357
		c0.952,0,1.905-0.218,2.807-0.674C292.736,168.535,301.994,151.993,295.192,134.872 M89.212,118.472
		c-3.186-9.376-5.764-18.424-7.742-27.03c8.546-1.324,17.824-2.288,27.898-2.822C102.324,97.988,95.586,108.018,89.212,118.472"/>
	<path clip-path="url(#SVGID_2_)" fill="none" stroke="#FFFFFF" stroke-width="3" stroke-miterlimit="10" d="M124.78,137.152
		c0,13.594,11.064,24.648,24.654,24.648c13.592,0,24.654-11.054,24.654-24.648s-11.062-24.648-24.654-24.648
		C135.844,112.504,124.78,123.558,124.78,137.152z M295.192,134.872c-12.759-32.042-82.002-57.308-159.6-58.986
		c31.797-36.03,64.386-56.042,82.965-53.33c17.828,2.624,17.322,26.238,15.445,40.078c-0.458,3.37,1.901,6.476,5.273,6.938
		c3.273,0.44,6.477-1.906,6.935-5.276c4.247-31.232-5.179-50.892-25.871-53.932c-26.162-3.818-65.682,22.978-100.856,65.476
		c-14.44,0.314-28.01,1.474-40.458,3.4c-4.718-27.348-2.834-48.836,5.21-58.94c11.256-14.094,31.6-1.782,42.736,6.8
		c2.684,2.082,6.584,1.588,8.642-1.12c2.084-2.696,1.59-6.564-1.106-8.64c-25.064-19.318-46.89-21.056-59.914-4.718
		c-10.814,13.58-12.954,38.652-7.732,68.79c-29.114,6.07-50.584,16.73-60.056,30.688c-5.778,8.51-6.862,17.958-3.13,27.332
		c3.78,9.484,12.256,18.408,25.196,26.526c2.902,1.806,6.694,0.945,8.498-1.948c1.806-2.884,0.94-6.687-1.95-8.498
		c-10.52-6.596-17.54-13.732-20.284-20.64c-2.214-5.556-1.6-10.736,1.866-15.85c6.628-9.768,24.466-19.56,52.302-25.448
		c2.842,12.446,6.802,25.54,11.858,38.936c-26.444,48.068-36.12,91.676-24.904,114.916c4.502,9.322,12.196,15.034,22.272,16.514
		c1.758,0.258,3.574,0.391,5.442,0.391c11.014,0,23.822-4.5,38.184-13.412c2.89-1.794,3.78-5.599,1.986-8.486
		c-1.794-2.9-5.61-3.748-8.486-1.986c-14.062,8.732-26.22,12.639-35.344,11.303c-5.996-0.885-10.234-4.051-12.954-9.677
		c-7.26-15.04-3.31-49.422,19.794-94.659C92.81,160.548,99.446,173.81,107,186.834c29.542,50.922,64.742,83.798,91.85,85.79
		c0.868,0.065,1.723,0.096,2.566,0.096c9.22,0,17.082-3.786,22.86-11.038c18.804-23.63,11.651-83.452-17.384-145.478
		c-1.456-3.086-5.14-4.41-8.198-2.966c-3.08,1.438-4.418,5.108-2.973,8.19c26.278,56.114,34.405,113.11,18.9,132.576
		c-3.743,4.712-8.668,6.746-14.868,6.332c-18.647-1.374-51.258-26.544-82.088-79.688c-9.28-15.998-16.856-31.936-22.944-47.302
		c0.35-0.61,0.606-1.17,0.962-1.784c9.286-16.008,19.368-30.514,29.69-43.45c0.718-0.004,1.344-0.064,2.066-0.064
		c81.258,0,146.422,26.568,156.292,51.378c5.43,13.647-7.645,23.775-19.563,29.868c-3.034,1.552-4.238,5.264-2.684,8.292
		c1.096,2.13,3.25,3.357,5.487,3.357c0.952,0,1.905-0.218,2.807-0.674C292.736,168.535,301.994,151.993,295.192,134.872z
		 M89.212,118.472c-3.186-9.376-5.764-18.424-7.742-27.03c8.546-1.324,17.824-2.288,27.898-2.822
		C102.324,97.988,95.586,108.018,89.212,118.472z"/>
</g>
</svg>
